<svg width="566" height="853" viewBox="0 0 566 853" fill="none" xmlns="http://www.w3.org/2000/svg">
<path d="M374.695 224.124C380.538 199.424 396.835 184.008 418.106 173.92C435.624 165.612 454.099 159.324 472.76 151.897C480.341 183.171 483.405 212.916 474.69 242.322C467.675 265.988 451.046 281.13 426.257 285.258C415.636 287.027 404.623 286.527 393.782 286.791C392.255 286.827 390.04 285.744 389.243 284.483C379.174 268.542 372.619 251.453 373.314 232.229C373.404 229.723 374.215 227.243 374.695 224.124Z" fill="#FDD34B"/>
<path d="M207.409 264.36C196.598 279.013 182.504 286.642 164.933 288.391C150.153 289.863 136.543 286.322 122.601 281.653C114.124 278.814 112.331 273.48 111.192 266.772C108.781 252.581 109.535 238.455 114.154 224.759C120.591 205.662 134.554 193.925 152.712 186.667C177.058 176.936 202.657 179.706 227.935 179.558C230.355 179.545 232.782 180.766 235.706 181.548C236.152 197.679 231.966 213.18 226.203 227.958C221.326 240.461 214.011 252.012 207.409 264.36Z" fill="#FDD34B"/>
<path d="M363.232 524.968C363.232 537.141 363.232 548.625 363.232 560.614C343.174 560.144 326.056 555.613 309.561 548.815C295.528 543.033 283.262 534.869 274.696 521.628C266.642 509.176 266.152 495.725 267.932 481.91C268.653 476.321 271.347 471.015 272.541 465.45C274.083 458.276 277.519 454.58 285.416 453.944C298.562 452.884 311.53 451.806 324.245 456.448C339.041 461.85 349.472 472.185 354.434 486.746C358.56 498.849 360.387 511.737 363.232 524.968Z" fill="#FDD34B"/>
<path d="M143.695 36.7162C149.711 48.7911 155.096 60.558 155.45 73.7991C155.976 93.5347 146.413 108.305 130.965 119.153C113.314 131.55 116.238 131.536 95.5326 117.318C68.6979 98.8916 68.4214 63.6369 83.2758 40.3266C88.604 31.9653 93.8721 23.5431 99.6875 15.5262C103.541 10.2143 108.32 5.57329 113.241 0.000183105C125.675 10.4025 134.61 23.2667 143.695 36.7162Z" fill="#FDD34B"/>
<path d="M260.035 259.556C253.273 241.597 258.264 226.138 268.491 212.048C279.938 196.273 296.159 186.123 312.765 176.588C316.62 174.374 318.836 174.803 320.891 179.183C330.244 199.117 337.245 219.465 336.101 242.007C335.184 260.063 321.955 278.382 304.773 284.05C301.726 285.056 298.651 285.976 295.595 286.957C281.403 291.513 280.349 291.623 271.743 280.366C267.055 274.237 263.912 266.929 260.035 259.556Z" fill="#FDD34B"/>
<path d="M371.807 294.298C374.694 308.875 379.846 322.855 379.946 336.871C380.152 365.676 367.46 382.25 337.832 389.963C322.785 393.879 321.305 392.499 311.824 379.678C305.286 370.838 301.436 360.932 300.485 350.475C299.317 337.655 303.521 325.517 312.272 315.924C319.444 308.062 327.344 300.651 335.853 294.285C344.269 287.99 353.851 283.255 363.986 277.2C366.79 283.137 369.287 288.428 371.807 294.298Z" fill="#FDD34B"/>
<path d="M400.943 544.533C387.094 533.238 380.638 518.998 382.032 501.794C382.658 494.073 384.859 486.409 387.065 478.933C387.653 476.941 390.671 475.048 392.967 474.273C414.781 466.907 435.153 468.712 452.159 485.616C462.122 495.519 466.504 508.754 468.953 522.062C471.398 535.345 471.651 549.03 472.948 563.448C446.562 563.577 422.661 559.332 400.943 544.533Z" fill="#FDD34B"/>
<path d="M163.624 570.882C153.825 550.807 159.734 532.481 169.383 515.204C171.203 511.945 178.849 510.572 183.758 510.672C196.471 510.932 208.768 513.005 219.822 520.736C231.547 528.937 237.191 540.486 239.854 553.564C243.654 572.229 241.499 591.018 238.347 609.598C238.076 611.189 234.139 613.68 232.503 613.285C212.498 608.449 193.083 601.79 177.123 588.294C171.78 583.777 168.33 577.021 163.624 570.882Z" fill="#FDD34B"/>
<path d="M-27.5374 94.4661C-7.69577 98.2829 8.63287 118.279 8.08414 138.959C7.42509 163.791 9.66439 161.527 -14.9854 168.688C-30.3312 173.146 -51.8549 166.214 -61.3179 153.856C-71.8842 140.061 -77.3786 124.043 -80.8702 107.253C-81.8587 102.502 -82.3817 97.6539 -83.2241 92.1566C-64.841 89.6823 -46.3618 89.1679 -27.5374 94.4661Z" fill="#FDD34B"/>
<path d="M9.61426 254.731C13.8623 234.468 27.9487 222.794 43.4707 212.538C50.3362 208.003 57.9525 204.605 65.7035 200.434C72.4373 214.301 77.7713 228.176 78.0134 243.392C78.1424 251.562 78.3745 260.052 76.426 267.865C71.9373 285.862 57.9984 294.145 41.1526 298.255C36.9877 299.271 30.4617 300.892 28.5275 298.874C22.2235 292.297 16.3867 284.695 12.6129 276.459C9.75894 270.229 10.3363 262.426 9.61426 254.731Z" fill="#FDD34B"/>
<path d="M281.767 545.675C296.705 549.5 304.072 560.846 311.035 572.457C311.652 573.484 310.417 576.968 309.21 577.533C297.072 583.206 284.913 588.937 270.792 584.96C262.881 582.731 249.244 566.439 252.096 559.422C254.253 554.118 260.77 549.773 266.333 546.93C270.527 544.787 276.282 545.695 281.767 545.675Z" fill="#FDD34B"/>
<path d="M58.163 147.922C63.325 145.905 67.9326 143.939 72.5202 141.982C79.7626 156.703 81.0706 181.506 68.5888 191.289C61.7333 196.662 54.1643 198.517 45.8932 197.874C44.121 197.736 42.0478 195.467 40.9446 193.67C29.9242 175.732 35.8757 160.516 52.819 150.753C54.4193 149.832 56.0125 148.901 58.163 147.922Z" fill="#FDD34B"/>
<path d="M-13.4454 384.318C-7.32773 381.611 -1.85477 378.668 3.91333 376.513C5.18845 376.036 8.8304 378.053 9.13127 379.418C11.4766 390.043 13.8879 400.671 10.8735 411.722C8.41062 420.749 0.577978 428.608 -8.70887 430.154C-9.40373 430.27 -10.1473 430.088 -10.8465 430.192C-22.0188 431.86 -27.1794 427.538 -29.4245 416.006C-32.2813 401.329 -25.6077 391.747 -13.4454 384.318Z" fill="#FDD34B"/>
<path d="M241.132 53.932C244.293 63.5197 248.466 72.4656 249.707 81.8026C251.128 92.5078 239.062 106.056 228.411 107.633C226.188 107.962 223.229 106.878 221.356 105.458C207.336 94.8302 205.786 76.3052 216.396 63.4925C221.578 57.2358 227.537 51.6239 233.874 44.9532C236.598 48.2756 238.724 50.8689 241.132 53.932Z" fill="#FDD34B"/>
<path d="M215.919 138.359C188.609 146.593 171.792 132.651 174.309 93.0292C192.362 88.893 214.292 100.197 219.15 116.347C221.409 123.856 219.565 131.023 215.919 138.359Z" fill="#FDD34B"/>
<path d="M288.707 640.488C288 642.797 287.315 644.498 286.291 647.042C270.673 640.985 255.588 634.67 250.573 616.236C248.717 609.415 253.638 592.254 259.849 590.916C266.064 589.575 273.856 591.596 279.905 594.409C288.217 598.273 292.258 606.164 291.528 615.617C290.9 623.728 289.684 631.794 288.707 640.488Z" fill="#FDD34B"/>
<path d="M14.8149 215.27C-1.44209 216.747 -9.72751 205.509 -18.9699 196.033C-20.7236 194.235 -21.9285 191.901 -23.8827 189.104C-16.6332 182.551 -7.94378 178.929 1.76715 176.392C16.7433 172.476 29.1878 177.75 35.4603 192.813C38.1022 199.159 37.7455 203.626 32.4702 206.973C27.1735 210.331 21.1547 212.551 14.8149 215.27Z" fill="#FDD34B"/>
<path d="M245.725 109.246C257.194 106.706 267.267 109.937 277.176 113.713C278.086 114.06 278.95 117.198 278.39 118.312C273.126 128.795 268.802 139.961 257.955 146.502C248.798 152.024 230.732 150.421 224.28 142.491C222.557 140.372 222.646 136.236 222.932 133.119C224.045 121.006 233.832 109.391 245.725 109.246Z" fill="#FDD34B"/>
<path d="M8.18417 286.455C18.4023 295.235 17.6415 306.23 15.501 317.213C14.0096 324.869 6.40334 323.418 1.58083 323.858C-14.0171 325.281 -22.2381 317.194 -27.4546 303.033C-30.3458 295.185 -30.4002 286.292 -31.8759 276.962C-16.8725 276.796 -3.87784 278.472 8.18417 286.455Z" fill="#FDD34B"/>
<path d="M487.358 461.317C497.285 459.686 504.26 464.016 510.383 470.561C518.05 478.753 521.746 488.686 524.243 499.617C512.314 503.231 501.045 504.671 489.33 501.875C476.624 498.844 466.389 483.293 469.269 470.734C470.227 466.555 479.153 461.939 487.358 461.317Z" fill="#FDD34B"/>
<path d="M38.9403 87.7568C14.1873 91.9475 3.00932 65.2274 4.02655 43.3327C15.2934 43.9774 26.6605 41.526 37.5663 47.456C47.3045 52.7485 52.9179 59.6341 52.4465 71.2792C51.9422 83.7638 52.3333 83.7796 38.9403 87.7568Z" fill="#FDD34B"/>
<path d="M241.626 268.348C256.403 279.349 268.193 292.546 277.439 307.924C286.789 323.47 291.749 340.02 285.769 358.047C281.652 370.46 273.102 379.893 262.48 387.054C257.394 390.483 255.184 393.878 255.628 400.056C256.229 408.415 255.778 416.85 255.778 425.768C260.901 425.578 266.131 424.767 268.73 417.825C271.23 411.146 274.031 404.664 281.567 401.388C295.659 395.261 307.475 400.824 319.643 407.092C324.381 409.531 330.01 410.844 335.354 411.328C340.639 411.806 346.071 410.307 351.449 410.181C360.941 409.957 370.443 410.119 379.251 410.119C381.183 401.092 382.25 392.527 384.881 384.473C393.941 356.736 409.792 334.87 439.286 326.245C461.759 319.673 484.475 321.458 506.444 327.967C526.396 333.878 545.697 341.986 565.905 349.353C564.922 352.979 564.688 355.554 563.568 357.657C559.996 364.356 556.384 371.068 552.27 377.44C538.657 398.525 523.717 418.463 502.834 433.149C481.223 448.346 457.843 454.865 431.849 447.295C413.902 442.068 398.812 431.877 385.469 418.904C383.446 416.937 380.523 414.613 378.027 414.625C362.143 414.694 346.254 415.229 330.388 416.03C328.386 416.13 326.1 418.352 324.637 420.153C317.15 429.363 308.558 437.089 296.701 439.796C284.391 442.605 275.64 435.92 268.199 427.552C267.16 428.08 266.589 428.51 265.949 428.677C257.738 430.826 250.311 433.55 247.603 443.141C246.599 446.702 243.508 449.799 240.983 452.785C228.666 467.354 211.625 470.202 193.96 471.907C190.14 472.277 185.406 474.002 183.056 476.768C175.411 485.772 168.118 495.186 161.702 505.098C145.873 529.554 137.428 557.04 137.206 585.715C136.356 695.069 136.86 804.434 136.876 913.796C136.876 914.883 136.933 915.97 137.009 917.152C129.335 917.508 121.616 917.69 113.854 917.69C106.682 917.69 99.546 917.534 92.449 917.23C92.4501 834.715 92.4954 753.391 92.3865 672.067C92.3736 662.401 92.1037 652.66 90.9031 643.085C87.1765 613.335 71.3927 591.326 45.7214 576.519C25.0918 564.622 2.06195 561.065 -21.2483 560.717C-61.1149 560.122 -100.999 560.554 -140.874 560.554H-165.692C-169.249 566.372 -171.933 571.818 -175.57 576.528C-190.448 595.801 -210.598 605.195 -235.705 597.963C-257.408 591.712 -273.838 577.587 -290.578 563.681C-294.179 560.691 -293.053 558.492 -290.201 555.578C-276.548 541.628 -261.15 530.194 -243.018 522.814C-228.881 517.061 -214.529 515.171 -199.715 521.109C-186.209 526.522 -177.342 536.734 -170.011 548.548C-167.537 552.536 -165.562 555.287 -160.079 554.968C-144.699 554.074 -129.28 553.665 -113.871 553.444C-97.1604 553.203 -80.4407 553.206 -63.7297 553.435C-43.3093 553.716 -22.8943 554.507 -2.47388 554.772C15.6642 555.01 32.6904 559.826 49.6394 567.206C50.4131 567.263 51.1875 567.321 51.9597 567.379C51.5084 566.748 51.0579 566.12 49.949 564.707C47.6767 560.98 45.3872 557.264 43.1335 553.524C26.0271 525.138 16.0007 495.15 19.1511 461.244C21.2228 438.952 28.9531 419.275 40.7859 400.712C42.5366 397.965 43.3784 394.307 43.6277 390.995C44.4028 380.644 43.5549 370.049 45.4001 359.924C49.6524 336.605 63.8069 320.385 85.4695 311.418C107.83 302.16 131.626 301.753 155.37 302.787C163.572 303.144 171.713 304.89 180.261 306.054C179.486 308.607 178.662 310.331 178.465 312.123C175.755 336.765 168.324 359.979 155.27 380.944C149.562 390.111 142.167 398.893 133.727 405.556C115.509 419.939 94.3628 421.62 72.4724 415.153C64.4395 412.781 56.5784 409.827 48.5154 407.095C45.4394 413.904 42.0624 419.996 39.8718 426.487C33.0922 446.574 30.0017 466.84 34.7283 488.187C40.2313 513.046 53.8075 532.932 69.8982 551.715C73.7134 556.167 76.7078 555.499 79.3855 551.161C89.5821 534.64 98.27 517.708 101.326 497.964C104.571 476.997 99.571 458.828 86.7898 442.636C80.91 435.186 73.7397 428.755 66.2869 420.953C69.4873 421.83 72.1418 421.821 73.7263 423.118C81.089 429.141 89.4131 434.562 95.0837 441.967C110.199 461.698 112.566 484.853 111.279 509.055C110.184 529.676 106.537 549.558 99.7263 568.973C98.9355 571.223 97.921 574.834 98.9998 576.052C103.507 581.136 108.772 585.548 113.76 590.206C115.372 567.038 115.221 545.33 115.486 523.626C115.548 518.603 116.536 513.454 117.947 508.61C125.138 483.912 144.135 473.141 167.28 467.42C173.254 465.943 180.348 465.933 184.963 462.56C202.796 449.53 221.901 439.25 242.489 431.425C244.979 430.478 247.953 427.463 248.379 425.005C250.25 414.219 251.266 403.287 252.385 394.099C243.986 389.257 237.118 385.68 230.648 381.494C209.882 368.058 204.172 347.728 209.029 326.165C214.079 303.74 227.292 285.564 241.626 268.348ZM170.845 474.157C166.841 475.041 164.488 475.559 161.215 476.741C144.524 482.602 131.82 493.044 127.118 510.45C124.295 520.9 123.843 532.011 122.608 542.858C122.161 546.787 122.536 550.808 122.536 554.788C123.219 554.85 123.905 554.91 124.59 554.972C132.24 524.216 146.932 497.457 170.845 474.157ZM242.553 436.762C231.51 442.742 221.905 447.943 211.415 453.754C206.786 457.135 202.157 460.516 196.891 464.36C215.234 465.824 237.56 451.953 242.553 436.762Z" fill="#FDD34B"/>
</svg>
