<svg width="2340" height="999" viewBox="0 0 2340 999" fill="none" xmlns="http://www.w3.org/2000/svg">
<g clip-path="url(#clip0_157_8)">
<path d="M264.705 731.203C257.019 720.193 249.316 709.614 242.239 698.632C229.671 679.131 219.111 658.499 211.169 636.725C205.247 620.491 200.21 603.879 195.814 587.162C192.658 575.163 191.175 562.72 189.007 550.464C184.919 527.352 185.536 503.987 186.228 480.727C186.653 466.447 189.133 452.209 191.014 437.994C193.875 416.37 199.716 395.471 206.971 374.938C215.618 350.465 226.496 327.015 240.505 305.184C250.001 290.385 259.439 275.291 270.931 262.096C285.609 245.243 302.055 229.88 318.254 214.414C332.598 200.719 349.141 189.827 366.009 179.451C385.639 167.377 406.114 156.895 427.795 149.221C444.7 143.238 462.08 138.464 479.477 134.051C490.731 131.196 502.395 129.958 513.876 127.999C534.006 124.563 554.34 124.458 574.621 125.163C588.317 125.639 601.974 127.522 615.621 129.027C638.95 131.6 661.575 137.457 683.667 145.111C710.886 154.54 737.143 166.291 760.969 182.659C776.84 193.561 792.283 205.137 807.404 217.063C823.32 229.616 836.707 244.763 849.861 260.177C871.956 286.07 889.549 314.77 903.676 345.534C914.599 369.322 923.411 394.004 927.963 419.931C930.625 435.096 933.3 450.306 934.823 465.61C936.308 480.53 937.095 495.612 936.778 510.594C936.482 524.616 934.444 538.611 932.982 552.597C930.405 577.25 924.093 601.067 915.933 624.369C906.51 651.276 894.205 676.806 878.775 700.88C867.518 718.443 855.001 734.921 841.132 750.479C826.404 767.001 810.33 781.968 792.952 795.682C771.839 812.344 749.308 826.692 725.116 838.31C696.805 851.906 667.397 862.556 636.335 867.938C622.263 870.377 608.101 872.538 593.89 873.854C579.449 875.191 564.847 876.411 550.409 875.726C532.526 874.878 514.706 872.276 496.919 869.965C468.665 866.295 441.583 857.851 415.637 846.557C396.542 838.246 378.152 828.053 360.223 817.395C340.492 805.665 322.81 791.023 305.785 775.523C291.62 762.626 278.997 748.474 267.067 733.597C266.444 732.821 265.672 732.164 264.705 731.203ZM516.121 598.643C516.66 598.684 517.2 598.724 517.74 598.764C517.425 598.325 517.11 597.885 516.337 596.9C514.75 594.298 513.152 591.704 511.579 589.095C499.639 569.282 492.641 548.351 494.841 524.684C496.286 509.126 501.681 495.391 509.94 482.435C511.163 480.517 511.751 477.965 511.924 475.653C512.465 468.428 511.873 461.032 513.161 453.966C516.129 437.69 526.009 426.368 541.128 420.109C556.736 413.648 573.344 413.363 589.918 414.085C595.642 414.335 601.324 415.553 607.291 416.365C606.75 418.148 606.175 419.35 606.038 420.601C604.146 437.801 598.959 454.004 589.848 468.637C585.864 475.036 580.702 481.166 574.811 485.816C562.095 495.854 547.336 497.028 532.057 492.515C526.45 490.859 520.964 488.796 515.335 486.889C513.188 491.643 510.832 495.895 509.302 500.426C504.57 514.445 502.413 528.59 505.712 543.491C509.553 560.841 519.029 574.722 530.261 587.831C532.923 590.939 535.014 590.472 536.882 587.444C543.999 575.913 550.064 564.096 552.197 550.314C554.461 535.68 550.971 522.998 542.05 511.696C537.946 506.497 532.941 502.008 527.739 496.563C529.973 497.175 531.826 497.168 532.933 498.074C538.071 502.277 543.881 506.061 547.84 511.229C558.389 525.001 560.041 541.164 559.144 558.056C558.379 572.448 555.833 586.326 551.079 599.876C550.528 601.447 549.819 603.967 550.572 604.817C553.718 608.366 557.394 611.446 560.875 614.698C562 598.527 561.894 583.374 562.079 568.225C562.122 564.72 562.813 561.126 563.797 557.745C568.816 540.506 582.075 532.988 598.23 528.995C602.4 527.964 607.351 527.957 610.572 525.603C623.019 516.508 636.354 509.333 650.724 503.871C652.462 503.211 654.538 501.107 654.836 499.39C656.141 491.863 656.85 484.232 657.632 477.82C651.77 474.439 646.977 471.944 642.46 469.021C627.965 459.643 623.98 445.453 627.37 430.402C630.896 414.75 640.118 402.065 650.122 390.047C660.436 397.726 668.665 406.938 675.119 417.671C681.645 428.522 685.107 440.073 680.933 452.655C678.059 461.32 672.092 467.904 664.678 472.902C661.128 475.295 659.585 477.665 659.896 481.977C660.315 487.811 660 493.699 660 499.923C663.577 499.79 667.226 499.224 669.04 494.379C670.785 489.718 672.741 485.193 678 482.907C687.836 478.631 696.083 482.513 704.577 486.888C707.883 488.591 711.812 489.507 715.543 489.844C719.231 490.178 723.022 489.132 726.776 489.044C733.401 488.888 740.033 489 746.182 489C747.53 482.699 748.274 476.721 750.11 471.101C756.434 451.74 767.498 436.479 788.084 430.458C803.77 425.871 819.625 427.118 834.96 431.661C848.885 435.787 862.356 441.446 876.461 446.587C875.775 449.119 875.612 450.916 874.83 452.383C872.337 457.06 869.816 461.743 866.944 466.191C857.442 480.909 847.016 494.825 832.439 505.075C817.355 515.682 801.036 520.233 782.893 514.949C770.366 511.3 759.835 504.188 750.522 495.132C749.11 493.759 747.07 492.138 745.327 492.145C734.24 492.194 723.15 492.567 712.076 493.126C710.678 493.197 709.084 494.747 708.062 496.004C702.836 502.433 696.84 507.825 688.563 509.714C679.972 511.675 673.863 507.009 668.669 501.168C667.944 501.538 667.546 501.837 667.099 501.954C661.368 503.453 656.184 505.354 654.294 512.049C653.593 514.535 651.435 516.697 649.674 518.78C641.076 528.95 629.183 530.938 616.852 532.128C614.186 532.385 610.882 533.589 609.242 535.52C603.906 541.805 598.815 548.376 594.337 555.294C583.289 572.363 577.395 591.548 577.239 611.562C576.647 687.889 576.999 764.224 577.009 840.556C577.01 841.991 577.153 843.426 577.254 845.309C662.085 840.281 736.356 810.009 797.278 751.627C880.649 671.731 917.345 573.101 903.696 457.922C892.333 362.029 846.457 284.259 769.956 225.926C690.791 165.562 600.726 143.398 502.521 160.287C408.853 176.396 333.687 224.327 279.067 301.906C219.759 386.143 201.539 480.02 225.4 580.16C248.933 678.93 307.266 752.928 395.552 802.875C442.056 829.184 492.442 842.589 546 845.172C546 786.816 546.033 729.325 545.956 671.834C545.947 665.088 545.759 658.288 544.922 651.605C542.32 630.84 531.303 615.479 513.385 605.145C498.986 596.84 482.913 594.358 466.643 594.115C438.816 593.699 410.979 594 383.146 594C377.181 594 371.217 594 365.824 594C363.341 598.061 361.468 601.863 358.929 605.15C348.544 618.602 334.48 625.159 316.956 620.112C301.808 615.749 290.34 605.89 278.656 596.184C276.142 594.096 276.929 592.561 278.919 590.527C288.45 580.79 299.197 572.81 311.852 567.659C321.719 563.643 331.736 562.325 342.077 566.469C351.503 570.248 357.692 577.375 362.809 585.621C364.537 588.405 365.914 590.324 369.741 590.102C380.477 589.477 391.238 589.193 401.993 589.038C413.657 588.87 425.327 588.872 436.991 589.033C451.245 589.229 465.493 589.78 479.747 589.966C492.406 590.131 504.29 593.492 516.121 598.643ZM593.997 535.501C582.347 539.592 573.481 546.881 570.199 559.029C568.228 566.323 567.912 574.079 567.05 581.649C566.738 584.391 567 587.199 567 589.976C567.478 590.019 567.955 590.062 568.433 590.104C573.773 568.638 584.028 549.96 600.719 533.697C597.925 534.314 596.282 534.677 593.997 535.501ZM629.035 519.457C625.804 521.816 622.573 524.176 618.898 526.86C631.701 527.882 647.284 518.199 650.77 507.596C643.061 511.771 636.357 515.401 629.035 519.457Z" fill="#FFD100"/>
<path d="M2056.33 398.745C2044.97 391.358 2032.87 386.343 2020.01 384.215C2007.93 382.217 1995.58 381.496 1983.32 381.124C1966.92 380.626 1951.17 384.448 1935.98 390.509C1918.49 397.486 1903.43 408.207 1890.76 421.92C1875.39 438.551 1864.24 457.95 1856 479.045C1848.1 499.247 1843.48 520.286 1840.11 541.604C1838.79 549.999 1838.45 558.575 1838.05 567.086C1837.51 578.66 1836.67 590.28 1837.16 601.828C1837.82 617.022 1839.57 632.173 1841 647.327C1842.87 667.035 1848.18 685.956 1855.07 704.399C1863.07 725.805 1873.73 745.699 1888.64 763.327C1901.48 778.522 1916.55 790.697 1934.21 799.53C1947.04 805.949 1960.65 810.624 1975.06 811.909C1987.51 813.021 2000.11 814.534 2012.52 813.757C2040.72 811.992 2066.82 803.561 2089.58 785.997C2111.8 768.856 2128.66 747.272 2142.93 723.419C2143.82 721.926 2144.71 720.43 2145.95 718.347C2149.52 720.348 2152.93 722.268 2157.49 724.822C2148.39 740.686 2140.46 756.349 2130.83 770.888C2115.31 794.315 2095.35 813.415 2070.44 826.922C2053.19 836.272 2034.86 842.093 2015.42 845.179C1998.41 847.879 1981.32 847.784 1964.43 846.694C1937.39 844.948 1911.41 837.724 1887.11 825.49C1870.73 817.244 1855.8 806.855 1841.94 794.66C1818.04 773.632 1800.72 748.084 1787.87 719.322C1779.05 699.583 1773.57 678.844 1769.83 657.501C1765.97 635.41 1765.06 613.192 1766.2 591.001C1767.87 558.702 1774.92 527.442 1787.99 497.659C1796.74 477.729 1808.09 459.398 1821.94 442.727C1838.78 422.456 1858.93 406.05 1882.11 393.351C1903.31 381.742 1925.77 374.207 1949.54 369.848C1970.24 366.052 1991.1 366.11 2011.78 367.292C2045.77 369.234 2079.06 375.851 2111.05 387.99C2118.83 390.943 2126.6 393.938 2134.27 397.168C2135.19 397.557 2135.93 399.547 2135.93 400.797C2136.01 437.125 2135.98 473.452 2135.95 509.78C2135.95 510.068 2135.72 510.356 2135.52 510.818C2132.3 510.818 2129.02 510.818 2125.93 510.818C2121.62 498.112 2117.68 485.275 2112.92 472.751C2105.85 454.133 2096.43 436.831 2083.28 421.597C2075.51 412.6 2066.98 404.787 2056.33 398.745Z" fill="#FFD100"/>
<path d="M1690.25 471.634C1685.36 461.624 1681.39 451.528 1675.83 442.399C1670.13 433.04 1663.71 423.828 1656.13 415.967C1639.95 399.172 1619.95 388.762 1596.99 383.922C1582.5 380.868 1567.83 380.021 1553.28 381.213C1531.36 383.008 1510.72 389.417 1492.2 401.929C1473.32 414.688 1459.04 431.428 1447.5 450.894C1435.14 471.727 1427.68 494.379 1422.26 517.719C1419.62 529.06 1418.05 540.748 1417.16 552.369C1415.88 568.988 1414.91 585.703 1415.22 602.351C1415.51 617.701 1417.43 633.039 1419.04 648.339C1420.98 666.681 1425.81 684.365 1431.94 701.738C1439.77 723.966 1450.7 744.358 1465.89 762.526C1479.28 778.544 1495.04 791.402 1513.87 800.31C1528.66 807.311 1544.18 812.135 1560.68 812.97C1570.59 813.472 1580.58 814.576 1590.41 813.814C1611.92 812.145 1632.49 807.091 1651.69 796.295C1667.7 787.293 1681.4 775.699 1693.06 762.026C1704.44 748.693 1714.01 733.827 1724.85 718.989C1727.28 720.317 1730.61 722.135 1735.25 724.674C1727.13 739.096 1719.58 753.366 1711.2 767.129C1703.18 780.303 1693.2 792.056 1681.89 802.582C1666.22 817.162 1648.48 828.488 1628.38 836C1614.27 841.277 1599.82 845.298 1584.69 845.944C1570.45 846.552 1556.09 847.903 1541.97 846.737C1514 844.428 1487.11 837.27 1462.14 823.986C1447.68 816.295 1434.29 807.097 1421.77 796.443C1403.62 781.007 1389.2 762.553 1377.2 742.285C1364.79 721.332 1355.99 698.692 1351.14 674.787C1348.37 661.135 1346.3 647.254 1345.19 633.374C1344.01 618.526 1343.33 603.497 1344.24 588.657C1345.57 566.85 1349.32 545.332 1355.92 524.346C1363.01 501.81 1372.98 480.724 1386.02 461.085C1395.5 446.817 1406.57 433.814 1419.27 422.353C1434.82 408.317 1451.96 396.457 1470.99 387.536C1488.81 379.178 1507.46 373.532 1526.85 369.875C1547.53 365.975 1568.38 366.223 1589.08 367.285C1615.29 368.629 1641.3 372.657 1666.41 380.824C1682.4 386.025 1698.23 391.708 1713.81 397.064C1713.81 435.716 1713.81 473.153 1713.81 510.507C1713.34 510.716 1713.06 510.948 1712.78 510.953C1703.34 511.106 1703.67 510.999 1700.88 501.922C1697.77 491.827 1693.96 481.946 1690.25 471.634Z" fill="#FFD100"/>
<path d="M1136.22 815.632C1143.51 823.183 1150.86 829.751 1161.3 832.151C1176.17 835.566 1190.57 830.259 1197.86 817.325C1204.13 806.214 1207.76 793.962 1207.85 781.324C1208.47 696.759 1208.71 612.191 1208.98 527.623C1209.1 492.464 1208.67 457.3 1209.14 422.147C1209.38 404.022 1198.46 393.351 1182.74 389.132C1176.36 387.421 1169.66 386.453 1163.07 386.187C1158.36 385.997 1156.19 384.946 1156.97 380.023C1157.15 378.901 1157 377.725 1157 376.288C1212.24 376.288 1267.31 376.288 1322.69 376.288C1322.69 379.241 1322.69 382.314 1322.69 384.686C1312.92 386.776 1303.09 388.527 1293.45 391.017C1278.01 395.009 1271.1 408.198 1271.08 421.835C1270.93 527.481 1271.33 633.128 1270.77 738.77C1270.63 764.525 1262.13 788.167 1245.22 808.363C1229.06 827.669 1208.32 839.207 1183.98 843.759C1171.34 846.125 1158.17 847.22 1145.33 846.705C1127.26 845.981 1109.32 843.187 1092.35 836.032C1073.88 828.243 1058.55 816.862 1048.64 799.053C1048.08 798.047 1047.8 796.209 1048.34 795.366C1055.17 784.705 1063.3 775.267 1075.97 771.593C1091.66 767.047 1105.13 771.507 1114.98 785.163C1122.15 795.106 1129.02 805.264 1136.22 815.632Z" fill="#FFD100"/>
<path d="M1308.99 243.353C1309 220.097 1309 197.285 1309 174.473C1309 164.337 1308.23 163.408 1298.13 161.515C1298.13 159.895 1298.13 158.25 1298.13 156C1309.83 156 1321.6 155.768 1333.35 156.087C1340.34 156.277 1347.45 156.665 1354.24 158.155C1365.01 160.515 1372.14 166.882 1373.95 177.475C1375.82 188.399 1370.65 198.594 1360.72 203.996C1357.63 205.674 1354.37 207.023 1350.64 208.78C1357.76 218.689 1364.99 228.527 1371.97 238.545C1375.92 244.213 1380.38 248.826 1387.86 249.197C1387.86 251.063 1387.86 252.707 1387.86 254.996C1381.19 254.996 1374.43 255.173 1367.69 254.855C1366.23 254.787 1364.46 253.216 1363.51 251.865C1355.59 240.681 1347.62 229.519 1340.1 218.069C1336.27 212.242 1332.13 208.143 1324.02 210.516C1324.02 220.74 1323.73 231.348 1324.15 241.929C1324.34 246.768 1328.12 248.722 1335.74 249.134C1335.74 250.89 1335.74 252.665 1335.74 254.722C1323.46 254.722 1311.05 254.722 1298.22 254.722C1298.14 253.107 1298.05 251.376 1298.03 251.045C1302.18 248.3 1305.59 246.049 1308.99 243.353ZM1341.54 202.004C1348.23 202.535 1356.01 197.784 1358.73 187.81C1361.13 179.04 1354.52 166.72 1345.63 165.163C1338.63 163.936 1331.39 164.072 1324.26 163.603C1324.26 177.295 1324.26 190.016 1324.26 203.437C1329.92 202.958 1335.28 202.504 1341.54 202.004Z" fill="#FFD100"/>
<path d="M1746.14 154C1772.59 153.595 1791.09 169.064 1795.74 194.012C1799.41 213.668 1795.32 232.124 1779.42 245.876C1768.03 255.728 1754.51 258.886 1739.46 256.226C1731.26 254.776 1724.27 251.567 1717.78 246.436C1708.41 239.04 1703.36 229.259 1701.07 217.939C1698.73 206.385 1699.4 194.916 1704 183.912C1710.41 168.561 1721.5 158.597 1737.95 155.031C1740.48 154.483 1743.09 154.334 1746.14 154ZM1727.03 238.303C1741.49 255.514 1763.07 253.34 1773.47 234.575C1784.02 215.534 1782.09 195.656 1772.04 176.587C1766.64 166.352 1757.63 161.312 1746.42 161.151C1735.98 161.001 1724.95 170.229 1720.92 180.01C1716.66 190.358 1716.16 201.121 1717.22 211.81C1718.12 221.025 1720.51 230.202 1727.03 238.303Z" fill="#FFD100"/>
<path d="M1181.13 159.987C1192.76 154.224 1204.56 152.388 1216.96 154.977C1223.09 156.258 1229.19 157.708 1235.33 158.97C1238.72 159.666 1240.27 161.266 1240.09 165.019C1239.77 171.482 1240 177.971 1240 184.723C1237.7 184.723 1235.63 184.723 1233.39 184.723C1229.93 173.909 1224.41 164.602 1212.16 162.061C1194.04 158.301 1180.49 168.788 1175.32 183.615C1169.14 201.313 1170.72 218.743 1181.02 234.813C1187.15 244.374 1196.48 249.341 1207.51 249.736C1212.9 249.929 1218.49 247.652 1223.76 245.818C1225.26 245.294 1226.73 242.46 1226.85 240.593C1227.25 234.788 1226.82 228.931 1227.05 223.107C1227.33 215.713 1225.37 215.605 1218.58 214.042C1217.32 213.752 1215.94 214.001 1214.19 214.001C1214.11 212.144 1214.03 210.379 1213.94 208.303C1226.5 208.303 1238.92 208.303 1251.78 208.303C1251.86 209.871 1251.95 211.603 1252.04 213.307C1242 215.478 1242 215.478 1242 226.255C1242 233.087 1241.99 239.92 1241.98 246.753C1241.98 247.075 1241.84 247.396 1241.81 247.51C1229.69 254.384 1216.79 257.577 1202.98 257.006C1180.53 256.078 1163.03 243.179 1157.06 220.746C1152.62 204.039 1154.89 188.071 1165.2 174.109C1169.27 168.593 1175.5 164.671 1181.13 159.987Z" fill="#FFD100"/>
<path d="M1501 189C1501 184.003 1500.77 179.492 1501.05 175.012C1501.65 165.296 1498.72 163.534 1489.21 161.792C1489.21 160.054 1489.21 158.275 1489.21 156C1494.64 156 1500.09 156 1505.54 156C1510.85 156 1516.16 156 1521.73 156C1521.73 157.967 1521.73 159.709 1521.73 161.476C1512.75 163.405 1510.07 166.123 1510.02 176.066C1509.94 192.888 1510.07 209.71 1509.98 226.532C1509.9 241.697 1500.1 253.478 1484.72 256.063C1475.38 257.635 1466.46 257.146 1457.34 254.183C1445.16 250.228 1438.5 239.325 1438.09 228.478C1437.42 210.255 1437.28 192.011 1437.02 173.774C1436.89 164.416 1435.83 163.087 1426.2 161.769C1426.2 160.023 1426.2 158.248 1426.2 156.235C1438.64 156.235 1451.07 156.235 1463.75 156.235C1463.75 158.005 1463.75 159.747 1463.75 161.609C1461.81 162.078 1459.71 162.302 1457.86 163.1C1454.26 164.646 1451.79 166.729 1451.88 171.506C1452.19 187.989 1451.49 204.503 1452.16 220.964C1452.7 234.196 1456.86 243.457 1470.08 246.309C1486.83 249.926 1499.85 244.051 1500.89 223.971C1501.49 212.51 1501 200.992 1501 189Z" fill="#FFD100"/>
<path d="M1583.03 156C1595.01 156 1606.53 155.489 1617.97 156.146C1629.03 156.781 1639.18 160.092 1645.78 170.227C1654.54 183.667 1649.48 206.598 1631.72 211.728C1621.83 214.584 1611.18 214.8 1600.01 216.323C1600.01 224.637 1599.77 234.219 1600.26 243.765C1600.33 245.26 1603.52 246.983 1605.58 247.884C1607.73 248.821 1610.25 248.887 1612.81 249.372C1612.81 251.069 1612.81 252.823 1612.81 254.789C1599.61 254.789 1586.53 254.789 1573.23 254.789C1573.23 252.947 1573.23 251.203 1573.23 249.478C1575.11 248.992 1576.91 248.331 1578.77 248.084C1583.69 247.43 1585.06 244.411 1585.04 239.868C1584.95 217.563 1585 195.257 1585 172.952C1585 164.853 1585 164.847 1577.2 162.641C1575.96 162.291 1574.71 162.018 1573.22 161.65C1573.22 160.047 1573.22 158.272 1573.22 156C1576.3 156 1579.42 156 1583.03 156ZM1600 182.501C1600 190.589 1600 198.678 1600 207C1606.18 207 1611.89 207.585 1617.41 206.797C1621.18 206.259 1625.02 204.306 1628.22 202.103C1634.86 197.527 1634.18 190.253 1633.99 183.351C1633.77 175.329 1630.34 168.574 1622.74 166.23C1615.63 164.038 1607.83 164.107 1600 163.139C1600 170.227 1600 175.864 1600 182.501Z" fill="#FFD100"/>
<path d="M452.911 475.007C433.366 482.284 414.198 484.623 395.101 474.991C380.539 467.647 372.1 454.938 366.068 440.484C359.361 424.41 355.882 407.532 354.965 390.128C354.881 388.532 354.202 386.975 354.037 385.375C353.87 383.758 354 382.111 354 379.108C368.255 380.079 382.159 381.1 396.074 381.949C406.851 382.607 417.009 385.802 426.695 390.116C444.755 398.158 457.479 410.971 461.03 431.338C463.322 444.482 462.03 457.415 458.748 470.155C458.248 472.097 455.188 473.38 452.911 475.007Z" fill="#FFD100"/>
<path d="M743.001 359.18C747.079 341.94 758.454 331.181 773.301 324.139C785.528 318.34 798.423 313.951 811.448 308.768C816.739 330.596 818.878 351.358 812.795 371.882C807.899 388.401 796.292 398.969 778.99 401.851C771.577 403.086 763.89 402.737 756.323 402.92C755.257 402.946 753.711 402.189 753.155 401.31C746.127 390.183 741.552 378.256 742.037 364.837C742.1 363.088 742.667 361.358 743.001 359.18Z" fill="#FFD100"/>
<path d="M626.24 387.265C618.693 397.492 608.856 402.816 596.592 404.037C586.277 405.064 576.776 402.593 567.045 399.334C561.129 397.353 559.877 393.63 559.082 388.947C557.399 379.042 557.925 369.184 561.149 359.623C565.642 346.295 575.388 338.102 588.062 333.036C605.055 326.244 622.923 328.178 640.567 328.075C642.255 328.065 643.949 328.917 645.99 329.463C646.301 340.722 643.379 351.542 639.357 361.856C635.953 370.583 630.847 378.646 626.24 387.265Z" fill="#FFD100"/>
<path d="M735 569.163C735 577.66 735 585.675 735 594.042C721.001 593.715 709.053 590.552 697.54 585.808C687.745 581.771 679.183 576.073 673.205 566.832C667.582 558.14 667.24 548.752 668.484 539.11C668.987 535.208 670.866 531.504 671.7 527.62C672.776 522.613 675.175 520.033 680.687 519.589C689.862 518.849 698.913 518.097 707.788 521.337C718.115 525.108 725.396 532.322 728.86 542.484C731.739 550.933 733.014 559.928 735 569.163Z" fill="#FFD100"/>
<path d="M581.768 228.374C585.967 236.802 589.726 245.015 589.973 254.258C590.34 268.032 583.665 278.342 572.883 285.914C560.563 294.566 562.604 294.556 548.152 284.633C529.423 271.772 529.229 247.165 539.597 230.894C543.316 225.059 546.993 219.18 551.053 213.584C553.742 209.877 557.077 206.637 560.513 202.748C569.191 210.008 575.428 218.987 581.768 228.374Z" fill="#FFD100"/>
<path d="M327.271 407.233C319.175 414.62 310.49 420.104 299.473 419.936C289.267 419.78 280.205 415.771 272.779 409.073C264.582 401.679 257.146 393.441 248.136 384.312C257.06 379.346 264.26 374.514 272.105 371.219C279.122 368.272 286.752 365.956 294.286 365.266C305.796 364.213 316.201 368.17 323.652 377.434C326.819 381.373 328.78 386.282 331.291 390.749C333.95 395.48 334.372 399.898 329.747 403.822C328.799 404.627 328.261 405.914 327.271 407.233Z" fill="#FFD100"/>
<path d="M662.971 383.911C658.251 371.377 661.736 360.587 668.873 350.752C676.863 339.741 688.185 332.656 699.776 326.001C702.466 324.456 704.013 324.756 705.447 327.812C711.976 341.726 716.862 355.929 716.063 371.662C715.423 384.266 706.19 397.051 694.197 401.008C692.07 401.71 689.924 402.352 687.791 403.036C677.886 406.217 677.15 406.293 671.143 398.436C667.872 394.158 665.677 389.057 662.971 383.911Z" fill="#FFD100"/>
<path d="M740.985 408.16C743.001 418.334 746.596 428.092 746.666 437.875C746.81 457.98 737.951 469.549 717.271 474.932C706.769 477.666 705.736 476.703 699.118 467.754C694.555 461.584 691.868 454.669 691.204 447.371C690.389 438.423 693.324 429.95 699.431 423.255C704.437 417.768 709.951 412.595 715.89 408.152C721.764 403.757 728.453 400.453 735.526 396.226C737.483 400.371 739.226 404.063 740.985 408.16Z" fill="#FFD100"/>
<path d="M761.322 582.818C751.655 574.934 747.149 564.996 748.123 552.987C748.559 547.598 750.095 542.25 751.635 537.032C752.046 535.641 754.152 534.319 755.755 533.778C770.98 528.638 785.2 529.897 797.069 541.696C804.023 548.608 807.081 557.845 808.791 567.135C810.497 576.406 810.674 585.958 811.579 596.021C793.162 596.11 776.48 593.147 761.322 582.818Z" fill="#FFD100"/>
<path d="M595.678 601.209C588.839 587.197 592.963 574.406 599.698 562.347C600.968 560.072 606.305 559.114 609.732 559.184C618.605 559.365 627.188 560.812 634.903 566.208C643.087 571.932 647.026 579.993 648.885 589.122C651.537 602.149 650.033 615.263 647.833 628.233C647.644 629.343 644.896 631.081 643.754 630.805C629.791 627.43 616.24 622.782 605.1 613.362C601.371 610.209 598.963 605.494 595.678 601.209Z" fill="#FFD100"/>
<path d="M378.279 556.776C375.071 553.207 371.974 550.007 369.223 546.533C366.541 543.146 364.213 539.479 361.739 535.947C372.813 527.899 384.493 522.05 397.698 519.763C414.404 516.869 427.053 520.571 436.262 536.726C437.22 538.407 438.144 540.115 438.975 541.862C443.064 550.459 442.878 552.442 436.254 559.202C420.32 575.466 399.444 574.988 382.772 560.298C381.436 559.121 379.955 558.111 378.279 556.776Z" fill="#FFD100"/>
<path d="M345.31 485.811C346.714 488.01 347.768 490.005 348.991 491.891C352.97 498.024 350.85 503.113 346.525 508.015C332.952 523.397 316.749 526.369 299.049 516.469C288.843 510.76 280.824 502.361 273.155 493.662C271.769 492.09 271.48 491.379 273.634 489.588C283.817 481.126 294.904 474.457 307.894 471.637C322.437 468.48 335.905 471.527 345.31 485.811Z" fill="#FFD100"/>
<path d="M462.252 268.683C476.101 271.347 487.498 285.304 487.115 299.738C486.655 317.069 488.219 315.489 471.013 320.488C460.302 323.599 445.28 318.76 438.674 310.136C431.299 300.506 427.464 289.326 425.027 277.608C424.338 274.291 423.973 270.907 423.385 267.071C436.215 265.343 449.113 264.985 462.252 268.683Z" fill="#FFD100"/>
<path d="M488.184 380.543C491.148 366.401 500.98 358.252 511.815 351.094C516.606 347.928 521.923 345.556 527.333 342.646C532.032 352.324 535.756 362.008 535.924 372.63C536.015 378.331 536.176 384.257 534.816 389.71C531.684 402.272 521.954 408.053 510.196 410.923C507.289 411.632 502.734 412.763 501.384 411.354C496.984 406.764 492.91 401.458 490.277 395.71C488.284 391.361 488.687 385.914 488.184 380.543Z" fill="#FFD100"/>
<path d="M430.171 330.675C442.333 340.862 440.77 353.97 438.859 367.095C438.744 367.887 437.383 368.746 436.424 369.127C428.174 372.407 419.725 374.013 410.947 371.459C400.767 368.496 395.028 360.8 391.392 351.63C387.614 342.103 385.449 332.083 386.092 321.068C401.482 320.679 416.498 321.547 430.171 330.675Z" fill="#FFD100"/>
<path d="M678.139 583.615C688.566 586.285 693.708 594.204 698.568 602.308C698.998 603.025 698.137 605.458 697.294 605.851C688.822 609.812 680.336 613.811 670.479 611.035C664.957 609.48 655.439 598.108 657.43 593.211C658.935 589.508 663.484 586.476 667.367 584.491C670.294 582.995 674.312 583.629 678.139 583.615Z" fill="#FFD100"/>
<path d="M272.227 572.279C264.422 579.418 256.116 577.725 247.922 574.318C244.263 572.796 240.941 570.39 237.646 568.125C236.904 567.615 236.265 565.525 236.669 564.995C243.419 556.151 250.775 548.531 263.357 548.821C268.164 548.932 276.296 555.405 278.723 559.47C279.089 560.083 278.749 561.397 278.324 562.156C276.46 565.487 274.446 568.732 272.227 572.279Z" fill="#FFD100"/>
<path d="M522.069 305.993C525.672 304.585 528.888 303.213 532.09 301.847C537.145 312.122 538.059 329.434 529.346 336.263C524.561 340.013 519.278 341.307 513.505 340.858C512.269 340.762 510.822 339.178 510.051 337.924C502.359 325.404 506.514 314.783 518.34 307.97C519.456 307.327 520.568 306.676 522.069 305.993Z" fill="#FFD100"/>
<path d="M472.089 470.992C476.358 469.103 480.178 467.049 484.204 465.544C485.094 465.212 487.636 466.619 487.846 467.572C489.484 474.988 491.166 482.407 489.062 490.12C487.344 496.421 481.876 501.905 475.394 502.984C474.909 503.065 474.39 502.938 473.903 503.011C466.104 504.175 462.502 501.159 460.935 493.109C458.941 482.865 463.599 476.177 472.089 470.992Z" fill="#FFD100"/>
<path d="M316.188 439.987C312.523 438.274 309.26 436.576 305.473 434.604C311.693 424.533 318.662 416.198 330.734 414.06C335.396 413.234 346.864 419.459 348.24 423.977C348.79 425.781 347.642 428.208 346.979 430.258C343.845 439.947 334.578 444.995 324.827 442.386C322.066 441.647 319.335 440.799 316.188 439.987Z" fill="#FFD100"/>
<path d="M649.777 240.39C651.983 247.082 654.896 253.327 655.762 259.843C656.754 267.315 648.332 276.771 640.898 277.873C639.346 278.103 637.281 277.345 635.974 276.355C626.188 268.936 625.106 256.006 632.513 247.063C636.129 242.697 640.288 238.78 644.711 234.124C646.612 236.442 648.096 238.252 649.777 240.39Z" fill="#FFD100"/>
<path d="M421.765 501.268C420.716 499.829 419.919 498.651 419.034 497.341C427.22 490.34 436.592 487.078 447.271 488.048C453.128 488.58 461.714 498.111 461.899 504.161C461.939 505.464 461.195 507.037 460.326 508.08C454.516 515.055 446.059 518.623 436.496 514.143C430.394 511.284 425.74 506.999 421.765 501.268Z" fill="#FFD100"/>
<path d="M632.18 299.319C613.117 305.066 601.379 295.335 603.136 267.679C615.737 264.792 631.043 272.682 634.434 283.955C636.011 289.195 634.724 294.199 632.18 299.319Z" fill="#FFD100"/>
<path d="M682.983 649.792C682.49 651.404 682.012 652.591 681.297 654.367C670.396 650.14 659.867 645.732 656.367 632.865C655.071 628.104 658.506 616.127 662.841 615.192C667.179 614.257 672.619 615.667 676.84 617.63C682.641 620.328 685.463 625.836 684.952 632.433C684.515 638.095 683.665 643.724 682.983 649.792Z" fill="#FFD100"/>
<path d="M491.813 353C480.466 354.031 474.683 346.188 468.233 339.573C467.009 338.318 466.168 336.69 464.803 334.737C469.863 330.163 475.929 327.636 482.706 325.864C493.16 323.132 501.845 326.812 506.223 337.327C508.067 341.755 507.818 344.873 504.136 347.209C500.44 349.553 496.239 351.102 491.813 353Z" fill="#FFD100"/>
<path d="M652.983 278.998C660.989 277.225 668.02 279.481 674.935 282.117C675.57 282.359 676.173 284.548 675.782 285.327C672.109 292.643 669.091 300.437 661.52 305.002C655.128 308.857 642.519 307.737 638.015 302.202C636.812 300.724 636.874 297.836 637.074 295.662C637.851 287.207 644.682 279.1 652.983 278.998Z" fill="#FFD100"/>
<path d="M487.185 402.687C494.318 408.815 493.786 416.489 492.293 424.154C491.251 429.499 485.942 428.485 482.576 428.792C471.689 429.786 465.952 424.141 462.31 414.258C460.292 408.78 460.255 402.572 459.224 396.06C469.696 395.944 478.766 397.115 487.185 402.687Z" fill="#FFD100"/>
<path d="M821.638 524.736C828.566 523.598 833.434 526.619 837.708 531.187C843.059 536.906 845.639 543.839 847.382 551.469C839.057 553.991 831.19 554.996 823.013 553.045C814.145 550.929 807.001 540.074 809.011 531.309C809.68 528.392 815.91 525.169 821.638 524.736Z" fill="#FFD100"/>
<path d="M351.001 375.858C346.602 380.83 340.956 381.762 335.258 380.584C324.366 378.333 320.517 369.634 318.032 360.091C317.226 356.995 316.79 353.802 316.069 350.053C324.949 350.338 333.744 348.819 342.333 352.942C350.076 356.659 353.97 368.435 351.001 375.858Z" fill="#FFD100"/>
<path d="M508.652 263.999C491.376 266.924 483.573 248.275 484.283 232.993C492.147 233.443 500.081 231.732 507.694 235.87C514.49 239.565 518.408 244.37 518.08 252.498C517.727 261.212 518 261.224 508.652 263.999Z" fill="#FFD100"/>
<path d="M271.215 543.591C269.044 536.416 267.064 529.577 265.085 522.737C265.525 522.226 265.966 521.714 266.406 521.202C273.261 522.126 280.271 522.437 286.934 524.123C296.265 526.483 300 532.078 300 541.448C300 552.384 299.363 552.652 288.336 553.118C280.544 553.447 275.197 550.405 271.215 543.591Z" fill="#FFD100"/>
</g>
<defs>
<clipPath id="clip0_157_8">
<rect width="2340" height="999" fill="white"/>
</clipPath>
</defs>
</svg>
