<svg width="468" height="334" viewBox="0 0 468 334" fill="none" xmlns="http://www.w3.org/2000/svg">
<path d="M114.474 133.667H434.049C452.431 133.667 467.333 148.591 467.333 167C467.333 185.41 452.431 200.333 434.049 200.333H114.474L190.904 276.763C203.921 289.781 203.921 310.886 190.904 323.904C177.886 336.921 156.781 336.921 143.763 323.904L10.4298 190.57C-2.58768 177.553 -2.58768 156.447 10.4298 143.43L143.763 10.0965C156.781 -2.92099 177.886 -2.92099 190.904 10.0965C203.921 23.114 203.921 44.2195 190.904 57.2369L114.474 133.667Z" fill="black"/>
<mask id="mask0_165_5" style="mask-type:luminance" maskUnits="userSpaceOnUse" x="0" y="0" width="468" height="334">
<path d="M114.474 133.667H434.049C452.431 133.667 467.333 148.591 467.333 167C467.333 185.41 452.431 200.333 434.049 200.333H114.474L190.904 276.763C203.921 289.781 203.921 310.886 190.904 323.904C177.886 336.921 156.781 336.921 143.763 323.904L10.4298 190.57C-2.58768 177.553 -2.58768 156.447 10.4298 143.43L143.763 10.0965C156.781 -2.92099 177.886 -2.92099 190.904 10.0965C203.921 23.114 203.921 44.2195 190.904 57.2369L114.474 133.667Z" fill="white"/>
</mask>
<g mask="url(#mask0_165_5)">
<path d="M634 -233H-166V567H634V-233Z" fill="#FFD100"/>
</g>
</svg>
