<svg width="468" height="334" viewBox="0 0 468 334" fill="none" xmlns="http://www.w3.org/2000/svg">
<path d="M353.526 133.667H33.9509C15.5685 133.667 0.666603 148.591 0.666603 167C0.666603 185.41 15.5685 200.333 33.9509 200.333H353.526L277.096 276.763C264.079 289.781 264.079 310.886 277.096 323.904C290.114 336.921 311.219 336.921 324.237 323.904L457.57 190.57C470.588 177.553 470.588 156.447 457.57 143.43L324.237 10.0965C311.219 -2.92099 290.114 -2.92099 277.096 10.0965C264.079 23.114 264.079 44.2195 277.096 57.2369L353.526 133.667Z" fill="black"/>
<mask id="mask0_165_22" style="mask-type:luminance" maskUnits="userSpaceOnUse" x="0" y="0" width="468" height="334">
<path d="M353.526 133.667H33.9509C15.5685 133.667 0.666603 148.591 0.666603 167C0.666603 185.41 15.5685 200.333 33.9509 200.333H353.526L277.096 276.763C264.079 289.781 264.079 310.886 277.096 323.904C290.114 336.921 311.219 336.921 324.237 323.904L457.57 190.57C470.588 177.553 470.588 156.447 457.57 143.43L324.237 10.0965C311.219 -2.92099 290.114 -2.92099 277.096 10.0965C264.079 23.114 264.079 44.2195 277.096 57.2369L353.526 133.667Z" fill="white"/>
</mask>
<g mask="url(#mask0_165_22)">
<path d="M-166 -233H634V567H-166V-233Z" fill="#FFD100"/>
</g>
</svg>
