<svg width="16" height="16" viewBox="0 0 16 16" fill="none" xmlns="http://www.w3.org/2000/svg">
<path d="M1.68239 12.9172C1.51866 12.6827 1.35458 12.4573 1.20382 12.2234C0.9361 11.808 0.711169 11.3685 0.541985 10.9046C0.415845 10.5588 0.308557 10.2049 0.214905 9.84886C0.147677 9.59324 0.116082 9.32819 0.0699056 9.06711C-0.0171711 8.57478 -0.00403057 8.07706 0.0107088 7.58159C0.019758 7.27739 0.0725956 6.97409 0.112657 6.6713C0.173603 6.21065 0.298028 5.76548 0.452565 5.32809C0.636757 4.80676 0.868471 4.30723 1.16689 3.84218C1.36917 3.52695 1.57021 3.20542 1.81501 2.92434C2.12768 2.56533 2.47799 2.23807 2.82305 1.90862C3.1286 1.61689 3.48099 1.38487 3.84031 1.16385C4.25846 0.906642 4.69459 0.68335 5.15644 0.51989C5.51654 0.392442 5.88676 0.290737 6.25733 0.196727C6.49706 0.135911 6.74553 0.109554 6.9901 0.0678108C7.41889 -0.00537699 7.85202 -0.00760775 8.28404 0.00740816C8.57578 0.0175484 8.86671 0.057652 9.15741 0.0897155C9.65434 0.144526 10.1363 0.269295 10.6069 0.432325C11.1867 0.633183 11.746 0.883514 12.2535 1.23217C12.5916 1.4644 12.9206 1.71101 13.2427 1.96506C13.5817 2.23244 13.8669 2.5551 14.147 2.88346C14.6177 3.43503 14.9925 4.0464 15.2934 4.70172C15.5261 5.20845 15.7138 5.73422 15.8107 6.28651C15.8675 6.60955 15.9244 6.93355 15.9569 7.25955C15.9885 7.5774 16.0053 7.89867 15.9985 8.21781C15.9922 8.51651 15.9488 8.81461 15.9177 9.11256C15.8628 9.6377 15.7283 10.1451 15.5545 10.6414C15.3538 11.2146 15.0916 11.7584 14.763 12.2713C14.5232 12.6454 14.2565 12.9964 13.9611 13.3278C13.6474 13.6798 13.305 13.9986 12.9348 14.2907C12.4851 14.6457 12.0051 14.9513 11.4898 15.1988C10.8867 15.4884 10.2603 15.7153 9.59864 15.8299C9.29889 15.8819 8.99721 15.9279 8.6945 15.9559C8.3869 15.9844 8.07585 16.0104 7.76829 15.9958C7.38737 15.9777 7.00776 15.9223 6.62887 15.8731C6.02703 15.7949 5.45015 15.615 4.89746 15.3745C4.49071 15.1974 4.09898 14.9803 3.71706 14.7532C3.29676 14.5034 2.92009 14.1915 2.55745 13.8613C2.25571 13.5866 1.98682 13.2851 1.73269 12.9682C1.71943 12.9517 1.70299 12.9377 1.68239 12.9172ZM7.0379 10.0934C7.0494 10.0943 7.06089 10.0951 7.07239 10.096C7.06568 10.0866 7.05897 10.0773 7.0425 10.0563C7.00871 10.0009 6.97467 9.94561 6.94117 9.89002C6.68681 9.46796 6.53776 9.02209 6.5846 8.51796C6.6154 8.18653 6.73032 7.89396 6.90625 7.61796C6.93229 7.57712 6.94481 7.52274 6.9485 7.4735C6.96004 7.31959 6.94742 7.16205 6.97487 7.01152C7.03808 6.66481 7.24853 6.42364 7.5706 6.29031C7.90306 6.15267 8.25684 6.14661 8.60988 6.16199C8.73182 6.16731 8.85286 6.19326 8.97996 6.21056C8.96844 6.24853 8.95619 6.27415 8.95326 6.30079C8.91297 6.66719 8.80248 7.01233 8.6084 7.32405C8.52354 7.46035 8.41359 7.59093 8.2881 7.68999C8.01722 7.90382 7.70284 7.92883 7.37737 7.83269C7.25793 7.79741 7.14106 7.75347 7.02117 7.71286C6.97544 7.81411 6.92524 7.90468 6.89266 8.0012C6.79186 8.29985 6.74591 8.60116 6.81618 8.91856C6.89801 9.28817 7.09985 9.58385 7.3391 9.86311C7.39581 9.92931 7.44035 9.91936 7.48016 9.85486C7.63175 9.60923 7.76094 9.35749 7.80637 9.06393C7.85462 8.75219 7.78027 8.48204 7.59023 8.24128C7.50281 8.13053 7.39621 8.03491 7.28539 7.91891C7.33298 7.93195 7.37244 7.93182 7.39602 7.9511C7.50548 8.04065 7.62924 8.12125 7.71356 8.23134C7.93827 8.52471 7.97347 8.869 7.95435 9.22883C7.93807 9.53541 7.88383 9.83103 7.78256 10.1197C7.77082 10.1532 7.75573 10.2068 7.77177 10.2249C7.83878 10.3005 7.91708 10.3661 7.99124 10.4354C8.0152 10.0909 8.01294 9.76816 8.01688 9.44546C8.0178 9.37079 8.03251 9.29423 8.05348 9.22222C8.1604 8.85499 8.44282 8.69485 8.78695 8.60979C8.87578 8.58783 8.98125 8.58767 9.04986 8.53753C9.31499 8.3438 9.59905 8.19095 9.90514 8.0746C9.94217 8.06053 9.98639 8.01571 9.99273 7.97915C10.0205 7.8188 10.0356 7.65625 10.0523 7.51966C9.92742 7.44765 9.82532 7.39449 9.72911 7.33223C9.42035 7.13246 9.33547 6.83019 9.40768 6.50957C9.48277 6.17616 9.67922 5.90593 9.89232 5.64994C10.112 5.81351 10.2873 6.00973 10.4248 6.23837C10.5638 6.46952 10.6376 6.71559 10.5486 6.9836C10.4874 7.16817 10.3603 7.30842 10.2024 7.41489C10.1268 7.46587 10.0939 7.51635 10.1005 7.6082C10.1095 7.73249 10.1027 7.85791 10.1027 7.99049C10.1789 7.98766 10.2567 7.97561 10.2953 7.8724C10.3325 7.77311 10.3741 7.67672 10.4862 7.62802C10.6957 7.53693 10.8714 7.61962 11.0523 7.71282C11.1227 7.7491 11.2064 7.76861 11.2859 7.7758C11.3644 7.78291 11.4452 7.76063 11.5252 7.75875C11.6663 7.75543 11.8076 7.75782 11.9385 7.75782C11.9673 7.62359 11.9831 7.49626 12.0222 7.37653C12.1569 6.96411 12.3926 6.63901 12.8311 6.51077C13.1653 6.41305 13.503 6.4396 13.8296 6.53638C14.1263 6.62427 14.4132 6.74482 14.7137 6.85434C14.6991 6.90826 14.6956 6.94655 14.6789 6.9778C14.6258 7.07742 14.5721 7.1772 14.5109 7.27194C14.3085 7.58545 14.0864 7.88189 13.7759 8.10025C13.4546 8.3262 13.107 8.42313 12.7205 8.31057C12.4537 8.23285 12.2294 8.08135 12.031 7.88845C12.0009 7.8592 11.9575 7.82465 11.9203 7.82481C11.6842 7.82585 11.4479 7.8338 11.212 7.84571C11.1823 7.84721 11.1483 7.88024 11.1265 7.90701C11.0152 8.04395 10.8875 8.15882 10.7112 8.19906C10.5282 8.24084 10.398 8.14144 10.2874 8.01702C10.272 8.02489 10.2635 8.03127 10.254 8.03375C10.1319 8.0657 10.0215 8.10619 9.9812 8.24881C9.96626 8.30175 9.92029 8.3478 9.88277 8.39218C9.69964 8.60882 9.44629 8.65116 9.18363 8.67652C9.12685 8.682 9.05645 8.70764 9.02152 8.74879C8.90786 8.88265 8.79942 9.02263 8.70403 9.17C8.46868 9.5336 8.34313 9.94229 8.33982 10.3686C8.32719 11.9945 8.33469 13.6206 8.33492 15.2466C8.33493 15.2772 8.33798 15.3077 8.34012 15.3479C10.1471 15.2408 11.7292 14.5959 13.027 13.3523C14.8029 11.6503 15.5846 9.54932 15.2938 7.0958C15.0518 5.05309 14.0745 3.39644 12.445 2.15384C10.7586 0.867971 8.84012 0.395854 6.74821 0.755614C4.75295 1.09875 3.1518 2.11979 1.98831 3.77237C0.724966 5.56678 0.336865 7.56653 0.845125 9.6997C1.34642 11.8037 2.58901 13.38 4.46961 14.4439C5.46023 15.0044 6.53352 15.2899 7.67437 15.3449C7.67437 14.1019 7.67508 12.8772 7.67344 11.6525C7.67324 11.5088 7.66924 11.364 7.6514 11.2216C7.59599 10.7793 7.36131 10.4521 6.97964 10.2319C6.67291 10.055 6.33052 10.0021 5.98395 9.99696C5.3912 9.9881 4.79823 9.99451 4.20535 9.99451C4.07829 9.99451 3.95124 9.99451 3.83637 9.99451C3.78348 10.081 3.74357 10.162 3.6895 10.232C3.46828 10.5186 3.16869 10.6583 2.79541 10.5507C2.47273 10.4578 2.22845 10.2478 1.97955 10.041C1.92602 9.99656 1.94276 9.96386 1.98516 9.92054C2.18818 9.71312 2.41711 9.54313 2.68668 9.43341C2.89687 9.34786 3.11025 9.31977 3.33051 9.40806C3.53131 9.48854 3.66315 9.64036 3.77215 9.81602C3.80894 9.87532 3.83829 9.91621 3.91981 9.91147C4.14849 9.89817 4.37772 9.89211 4.60681 9.88881C4.85528 9.88524 5.10386 9.88528 5.35233 9.8887C5.65595 9.89287 5.95946 9.90462 6.26308 9.90858C6.53274 9.91209 6.7859 9.9837 7.0379 10.0934ZM8.69678 8.74838C8.44862 8.83553 8.25975 8.99079 8.18984 9.24957C8.14787 9.40494 8.14114 9.57015 8.12278 9.73142C8.11612 9.78983 8.12171 9.84963 8.12171 9.9088C8.13188 9.90971 8.14206 9.91062 8.15223 9.91152C8.26598 9.45425 8.48443 9.05638 8.83997 8.70995C8.78045 8.72309 8.74546 8.73081 8.69678 8.74838ZM9.44315 8.4066C9.37432 8.45687 9.30549 8.50713 9.22721 8.5643C9.49993 8.58607 9.83187 8.37981 9.90612 8.15395C9.74192 8.24287 9.59912 8.3202 9.44315 8.4066Z" fill="#FCB521"/>
<path d="M5.69146 7.45982C5.27513 7.61484 4.86682 7.66466 4.46003 7.45949C4.14983 7.30303 3.97008 7.03232 3.84159 6.72441C3.69871 6.38202 3.6246 6.02249 3.60508 5.65173C3.60329 5.61775 3.58881 5.58457 3.5853 5.5505C3.58176 5.51606 3.58452 5.48096 3.58452 5.41699C3.88818 5.43767 4.18436 5.45943 4.48076 5.47752C4.71032 5.49153 4.9267 5.55959 5.13303 5.65148C5.51772 5.82281 5.78877 6.09574 5.86441 6.52959C5.91323 6.80959 5.88571 7.08508 5.81581 7.35646C5.80515 7.39784 5.73996 7.42517 5.69146 7.45982Z" fill="#FCB521"/>
<path d="M11.8709 4.99233C11.9578 4.62509 12.2001 4.39589 12.5163 4.24589C12.7768 4.12237 13.0515 4.02887 13.3289 3.91846C13.4416 4.38345 13.4872 4.8257 13.3576 5.26292C13.2533 5.61478 13.0061 5.83992 12.6375 5.9013C12.4796 5.9276 12.3159 5.92017 12.1547 5.92408C12.132 5.92463 12.099 5.90851 12.0872 5.88977C11.9375 5.65276 11.84 5.39868 11.8504 5.11284C11.8517 5.07559 11.8638 5.03872 11.8709 4.99233Z" fill="#FCB521"/>
<path d="M9.3836 5.59059C9.22284 5.80844 9.0133 5.92187 8.75205 5.94788C8.53233 5.96975 8.32995 5.91711 8.12267 5.8477C7.99664 5.80549 7.96998 5.72618 7.95304 5.62643C7.9172 5.41544 7.92841 5.20543 7.99707 5.00177C8.09279 4.71786 8.30039 4.54334 8.57036 4.43543C8.93233 4.29074 9.31294 4.33193 9.68878 4.32974C9.72476 4.32953 9.76083 4.34769 9.80431 4.35931C9.81094 4.59915 9.7487 4.82962 9.66301 5.04935C9.59051 5.23524 9.48174 5.40699 9.3836 5.59059Z" fill="#FCB521"/>
<path d="M11.7005 9.46546C11.7005 9.64646 11.7005 9.81719 11.7005 9.99543C11.4023 9.98846 11.1478 9.92109 10.9025 9.82002C10.6939 9.73404 10.5115 9.61267 10.3842 9.41581C10.2644 9.23065 10.2571 9.03066 10.2836 8.82527C10.2943 8.74216 10.3343 8.66326 10.3521 8.58053C10.375 8.47386 10.4261 8.41891 10.5435 8.40944C10.739 8.39369 10.9318 8.37766 11.1208 8.44669C11.3408 8.52701 11.4959 8.68067 11.5697 8.89715C11.631 9.07712 11.6582 9.26874 11.7005 9.46546Z" fill="#FCB521"/>
<path d="M8.43606 2.20606C8.5255 2.38559 8.60558 2.56054 8.61083 2.75742C8.61866 3.05084 8.47647 3.27046 8.2468 3.43175C7.98436 3.61607 8.02784 3.61585 7.71999 3.40446C7.32102 3.1305 7.3169 2.60633 7.53776 2.25974C7.61697 2.13543 7.6953 2.0102 7.78177 1.891C7.83906 1.81202 7.9101 1.74302 7.98328 1.66016C8.16814 1.81482 8.301 2.00609 8.43606 2.20606Z" fill="#FCB521"/>
<path d="M3.01526 6.01591C2.84281 6.17326 2.65781 6.29009 2.42314 6.2865C2.20573 6.28317 2.01269 6.19778 1.85452 6.0551C1.6799 5.89761 1.52151 5.72212 1.32959 5.52765C1.51966 5.42187 1.67304 5.31894 1.84016 5.24874C1.98962 5.18596 2.15216 5.13663 2.31265 5.12194C2.55782 5.0995 2.77946 5.1838 2.93818 5.38114C3.00565 5.46504 3.0474 5.56962 3.10089 5.66478C3.15754 5.76555 3.16654 5.85966 3.06801 5.94326C3.04782 5.96039 3.03636 5.9878 3.01526 6.01591Z" fill="#FCB521"/>
<path d="M10.1661 5.51914C10.0656 5.25213 10.1398 5.02228 10.2919 4.81277C10.4621 4.57824 10.7032 4.42731 10.9501 4.28554C11.0074 4.25263 11.0404 4.25902 11.0709 4.32413C11.21 4.62052 11.3141 4.92305 11.2971 5.25821C11.2834 5.52669 11.0868 5.79904 10.8313 5.88333C10.786 5.89828 10.7403 5.91195 10.6948 5.92654C10.4838 5.99428 10.4682 5.99592 10.3402 5.82855C10.2705 5.73742 10.2238 5.62875 10.1661 5.51914Z" fill="#FCB521"/>
<path d="M11.8279 6.03571C11.8708 6.25244 11.9474 6.4603 11.9489 6.6687C11.952 7.09697 11.7633 7.3434 11.3228 7.45808C11.0991 7.51632 11.077 7.4958 10.9361 7.30516C10.8389 7.17373 10.7816 7.02644 10.7675 6.87097C10.7501 6.68036 10.8126 6.49988 10.9427 6.35726C11.0494 6.24037 11.1668 6.13017 11.2933 6.03553C11.4185 5.94192 11.5609 5.87152 11.7116 5.78149C11.7533 5.86978 11.7904 5.94844 11.8279 6.03571Z" fill="#FCB521"/>
<path d="M12.261 9.75642C12.0551 9.58848 11.9591 9.37676 11.9798 9.12096C11.9891 9.00617 12.0218 8.89224 12.0546 8.78108C12.0634 8.75145 12.1083 8.7233 12.1424 8.71177C12.4667 8.60228 12.7696 8.62911 13.0225 8.88043C13.1706 9.02767 13.2357 9.22445 13.2721 9.42234C13.3085 9.61982 13.3123 9.8233 13.3315 10.0377C12.9392 10.0396 12.5839 9.97644 12.261 9.75642Z" fill="#FCB521"/>
<path d="M8.73256 10.148C8.58688 9.84949 8.67472 9.57702 8.81818 9.32013C8.84524 9.27168 8.95892 9.25127 9.03192 9.25276C9.22093 9.25662 9.40376 9.28744 9.5681 9.40239C9.74244 9.52432 9.82635 9.69604 9.86594 9.89049C9.92243 10.168 9.8904 10.4474 9.84353 10.7236C9.83952 10.7473 9.78098 10.7843 9.75664 10.7784C9.45921 10.7065 9.17056 10.6075 8.93326 10.4069C8.85383 10.3397 8.80253 10.2393 8.73256 10.148Z" fill="#FCB521"/>
<path d="M4.10185 9.20162C4.03352 9.12561 3.96755 9.05744 3.90894 8.98343C3.85182 8.91128 3.80223 8.83316 3.74951 8.75793C3.98541 8.5865 4.23422 8.4619 4.5155 8.41317C4.87137 8.35152 5.1408 8.43039 5.33696 8.77452C5.35737 8.81034 5.37705 8.84671 5.39475 8.88392C5.48185 9.06707 5.47789 9.10931 5.3368 9.25332C4.99738 9.59976 4.55269 9.58958 4.19754 9.27664C4.1691 9.25159 4.13754 9.23007 4.10185 9.20162Z" fill="#FCB521"/>
<path d="M3.39954 7.68982C3.42946 7.73666 3.45191 7.77917 3.47796 7.81933C3.56272 7.94998 3.51757 8.05839 3.42543 8.16281C3.13632 8.49047 2.79115 8.55379 2.41413 8.3429C2.19672 8.22129 2.02591 8.04236 1.86255 7.85706C1.83303 7.82358 1.82687 7.80844 1.87276 7.77029C2.08965 7.59002 2.32584 7.44797 2.60254 7.3879C2.91233 7.32065 3.19921 7.38555 3.39954 7.68982Z" fill="#FCB521"/>
<path d="M5.89043 3.06476C6.18544 3.12151 6.42821 3.41882 6.42005 3.72629C6.41026 4.09549 6.44356 4.06183 6.07706 4.1683C5.8489 4.23458 5.5289 4.13151 5.38819 3.94779C5.23109 3.74266 5.1494 3.50451 5.09749 3.25488C5.0828 3.18423 5.07503 3.11215 5.0625 3.03042C5.33581 2.99363 5.61056 2.98599 5.89043 3.06476Z" fill="#FCB521"/>
<path d="M6.44287 5.44742C6.50601 5.14616 6.71545 4.97258 6.94624 4.8201C7.04831 4.75266 7.16156 4.70214 7.27679 4.64014C7.3769 4.84631 7.45622 5.05259 7.45981 5.27885C7.46173 5.4003 7.46518 5.52654 7.43621 5.6427C7.36948 5.91029 7.16223 6.03343 6.91176 6.09456C6.84984 6.10967 6.75281 6.13376 6.72405 6.10375C6.63033 6.00597 6.54355 5.89294 6.48745 5.7705C6.44501 5.67786 6.45359 5.56184 6.44287 5.44742Z" fill="#FCB521"/>
<path d="M5.20697 4.38518C5.46604 4.60217 5.43274 4.8814 5.39203 5.161C5.38958 5.17786 5.36059 5.19615 5.34017 5.20427C5.16443 5.27415 4.98445 5.30836 4.79746 5.25394C4.58061 5.19083 4.45836 5.0269 4.38091 4.83156C4.30044 4.6286 4.25432 4.41517 4.26802 4.18053C4.59586 4.17223 4.91572 4.19073 5.20697 4.38518Z" fill="#FCB521"/>
<path d="M10.4893 9.77334C10.7115 9.83022 10.821 9.99891 10.9245 10.1715C10.9337 10.1868 10.9153 10.2386 10.8974 10.247C10.7169 10.3314 10.5361 10.4166 10.3262 10.3574C10.2085 10.3243 10.0058 10.0821 10.0482 9.97774C10.0803 9.89887 10.1772 9.83428 10.2599 9.79201C10.3222 9.76013 10.4078 9.77365 10.4893 9.77334Z" fill="#FCB521"/>
<path d="M1.84262 9.53185C1.67637 9.68393 1.49943 9.64785 1.32489 9.57527C1.24695 9.54286 1.1762 9.4916 1.10599 9.44335C1.0902 9.4325 1.07658 9.38797 1.08519 9.37668C1.22899 9.1883 1.38567 9.02597 1.65368 9.03215C1.75608 9.03451 1.9293 9.17241 1.981 9.25898C1.9888 9.27205 1.98155 9.30003 1.97249 9.31621C1.9328 9.38715 1.88989 9.45629 1.84262 9.53185Z" fill="#FCB521"/>
<path d="M7.16482 3.85931C7.24157 3.82932 7.31006 3.8001 7.37828 3.771C7.48596 3.98987 7.50541 4.35865 7.31982 4.50411C7.2179 4.58399 7.10537 4.61156 6.9824 4.60201C6.95605 4.59996 6.92522 4.56623 6.90881 4.5395C6.74497 4.2728 6.83346 4.04656 7.08537 3.90142C7.10915 3.88772 7.13283 3.87386 7.16482 3.85931Z" fill="#FCB521"/>
<path d="M6.09989 7.37419C6.19084 7.33394 6.27221 7.29019 6.35796 7.25814C6.37693 7.25106 6.43107 7.28104 6.43555 7.30134C6.47043 7.45932 6.50626 7.61735 6.46145 7.78164C6.42484 7.91587 6.30838 8.0327 6.1703 8.05569C6.15997 8.05741 6.14892 8.0547 6.13853 8.05625C5.97241 8.08105 5.89568 8.01679 5.8623 7.84533C5.81982 7.62711 5.91905 7.48464 6.09989 7.37419Z" fill="#FCB521"/>
<path d="M2.77903 6.7138C2.70095 6.67731 2.63146 6.64113 2.55078 6.59913C2.68329 6.3846 2.83173 6.20706 3.08889 6.1615C3.1882 6.1439 3.43247 6.27652 3.46179 6.37276C3.4735 6.41119 3.44905 6.46288 3.43492 6.50655C3.36816 6.71296 3.17076 6.82048 2.96305 6.7649C2.90425 6.74917 2.84607 6.73111 2.77903 6.7138Z" fill="#FCB521"/>
<path d="M9.88518 2.46185C9.93216 2.60441 9.99422 2.73743 10.0127 2.87624C10.0338 3.03541 9.85439 3.23684 9.69603 3.26031C9.66298 3.2652 9.61899 3.24907 9.59115 3.22797C9.3827 3.06994 9.35965 2.79451 9.51741 2.604C9.59445 2.51099 9.68305 2.42755 9.77725 2.32837C9.81775 2.37776 9.84937 2.41632 9.88518 2.46185Z" fill="#FCB521"/>
<path d="M5.0279 8.01906C5.00557 7.98841 4.98859 7.96331 4.96973 7.9354C5.14411 7.78626 5.34374 7.7168 5.57122 7.73745C5.69598 7.74878 5.87887 7.95181 5.88283 8.08069C5.88368 8.10843 5.86783 8.14195 5.84931 8.16418C5.72555 8.31275 5.54539 8.38876 5.3417 8.29332C5.21172 8.23243 5.11258 8.14114 5.0279 8.01906Z" fill="#FCB521"/>
<path d="M9.51006 3.71726C9.104 3.83968 8.85395 3.6324 8.89139 3.04328C9.15981 2.98178 9.48584 3.14986 9.55808 3.38997C9.59167 3.50161 9.56426 3.60819 9.51006 3.71726Z" fill="#FCB521"/>
<path d="M10.5924 11.1831C10.5819 11.2174 10.5717 11.2427 10.5565 11.2805C10.3243 11.1905 10.1 11.0965 10.0254 10.8225C9.99783 10.721 10.071 10.4659 10.1633 10.446C10.2557 10.4261 10.3716 10.4561 10.4615 10.4979C10.5851 10.5554 10.6452 10.6727 10.6343 10.8133C10.625 10.9339 10.6069 11.0538 10.5924 11.1831Z" fill="#FCB521"/>
<path d="M6.52017 4.86072C6.27846 4.88269 6.15529 4.71561 6.01787 4.5747C5.9918 4.54796 5.97389 4.51328 5.94482 4.47168C6.05261 4.37425 6.18182 4.32041 6.32619 4.28267C6.54886 4.22447 6.73387 4.30287 6.82713 4.52685C6.86641 4.62118 6.8611 4.6876 6.78267 4.73736C6.70393 4.7873 6.61445 4.8203 6.52017 4.86072Z" fill="#FCB521"/>
<path d="M9.9531 3.28445C10.1236 3.24668 10.2734 3.29472 10.4207 3.35088C10.4342 3.35604 10.4471 3.40267 10.4388 3.41926C10.3605 3.57511 10.2962 3.74113 10.1349 3.83839C9.99879 3.92049 9.73019 3.89664 9.63426 3.77874C9.60863 3.74724 9.60996 3.68573 9.61422 3.63941C9.63076 3.4593 9.77627 3.28661 9.9531 3.28445Z" fill="#FCB521"/>
<path d="M6.42128 5.91915C6.57322 6.04969 6.5619 6.21316 6.53009 6.37644C6.50791 6.4903 6.39481 6.4687 6.32311 6.47524C6.0912 6.49641 5.96899 6.37617 5.89142 6.16563C5.84843 6.04894 5.84763 5.9167 5.82568 5.77799C6.04874 5.77552 6.24195 5.80045 6.42128 5.91915Z" fill="#FCB521"/>
<path d="M13.5458 8.51904C13.6934 8.4948 13.7971 8.55916 13.8881 8.65647C14.0021 8.77828 14.057 8.92597 14.0942 9.0885C13.9168 9.14223 13.7493 9.16364 13.5751 9.12207C13.3862 9.077 13.234 8.84578 13.2768 8.65905C13.2911 8.59691 13.4238 8.52827 13.5458 8.51904Z" fill="#FCB521"/>
<path d="M3.52047 5.34759C3.42677 5.4535 3.3065 5.47336 3.18511 5.44827C2.95309 5.4003 2.87111 5.215 2.81817 5.01172C2.801 4.94577 2.79172 4.87776 2.77637 4.7979C2.96551 4.80397 3.15287 4.77162 3.33582 4.85944C3.50076 4.93862 3.58371 5.18946 3.52047 5.34759Z" fill="#FCB521"/>
<path d="M6.87892 2.96494C6.51091 3.02726 6.3447 2.62998 6.35983 2.30444C6.52734 2.31403 6.69635 2.27759 6.85851 2.36574C7.00328 2.44444 7.08675 2.54681 7.07974 2.71994C7.07223 2.90558 7.07805 2.90582 6.87892 2.96494Z" fill="#FCB521"/>
<path d="M1.821 8.92078C1.77476 8.76793 1.73259 8.62224 1.69043 8.47655C1.69981 8.46565 1.70918 8.45475 1.71856 8.44385C1.86459 8.46354 2.01391 8.47016 2.15584 8.50606C2.35462 8.55634 2.43417 8.67552 2.43417 8.87512C2.43417 9.10808 2.4206 9.1138 2.18571 9.12372C2.01973 9.13073 1.90582 9.06593 1.821 8.92078Z" fill="#FCB521"/>
</svg>
